<svg width="50" height="50" viewBox="0 0 50 50" fill="none" xmlns="http://www.w3.org/2000/svg">
<path d="M44.6429 0H5.35714C3.93634 0 2.57373 0.564412 1.56907 1.56907C0.564412 2.57373 0 3.93634 0 5.35714L0 44.6429C0 46.0637 0.564412 47.4263 1.56907 48.4309C2.57373 49.4356 3.93634 50 5.35714 50H44.6429C46.0637 50 47.4263 49.4356 48.4309 48.4309C49.4356 47.4263 50 46.0637 50 44.6429V5.35714C50 3.93634 49.4356 2.57373 48.4309 1.56907C47.4263 0.564412 46.0637 0 44.6429 0ZM42.8136 34.3047L41.1395 41.5592C41.0545 41.928 40.847 42.2571 40.5508 42.4928C40.2547 42.7286 39.8874 42.857 39.5089 42.8571C21.6518 42.8571 7.14286 28.3806 7.14286 10.4911C7.15614 10.1161 7.28942 9.75536 7.52308 9.46183C7.75673 9.1683 8.07844 8.95751 8.44085 8.86049L15.6953 7.18638C15.8191 7.16022 15.945 7.14564 16.0714 7.14286C16.3952 7.1592 16.7086 7.2619 16.9793 7.4403C17.2499 7.6187 17.4679 7.86629 17.6105 8.15737L20.9587 15.9699C21.0407 16.1805 21.0864 16.4035 21.0937 16.6295C21.0665 17.125 20.8461 17.5902 20.4799 17.9252L16.2511 21.385C18.8134 26.8158 23.1842 31.1866 28.615 33.7489L32.0748 29.5201C32.4098 29.1539 32.875 28.9335 33.3705 28.9062C33.5965 28.9135 33.8195 28.9592 34.0301 29.0413L41.8426 32.3895C42.1339 32.532 42.3816 32.7499 42.56 33.0205C42.7384 33.2912 42.841 33.6048 42.8571 33.9286C42.8549 34.0551 42.8403 34.181 42.8136 34.3047Z" fill="#2B2A2A"/>
</svg>
