<svg width="20" height="17" viewBox="0 0 20 17" fill="none" xmlns="http://www.w3.org/2000/svg">
<path fill-rule="evenodd" clip-rule="evenodd" d="M12.5806 0C14.4987 0 16.0909 1.39502 16.3981 3.22581H19.3548C19.7111 3.22581 20 3.51465 20 3.87097C20 4.22728 19.7111 4.51613 19.3548 4.51613H16.3981C16.0909 6.34691 14.4987 7.74194 12.5806 7.74194C10.4428 7.74194 8.70968 6.00884 8.70968 3.87097C8.70968 1.73309 10.4428 0 12.5806 0ZM12.5806 1.29032C11.1554 1.29032 10 2.44572 10 3.87097C10 5.29622 11.1554 6.45161 12.5806 6.45161C14.0059 6.45161 15.1613 5.29622 15.1613 3.87097C15.1613 2.44572 14.0059 1.29032 12.5806 1.29032Z" fill="white"/>
<path d="M0 3.87097C0 3.51465 0.288849 3.22581 0.645161 3.22581H6.77419C7.13051 3.22581 7.41935 3.51465 7.41935 3.87097C7.41935 4.22728 7.13051 4.51613 6.77419 4.51613H0.645161C0.288849 4.51613 0 4.22728 0 3.87097Z" fill="white"/>
<path fill-rule="evenodd" clip-rule="evenodd" d="M7.41935 9.03226C5.50129 9.03226 3.90906 10.4273 3.60191 12.2581H0.645161C0.288849 12.2581 0 12.5469 0 12.9032C0 13.2595 0.288849 13.5484 0.645161 13.5484H3.60191C3.90906 15.3792 5.50129 16.7742 7.41935 16.7742C9.55723 16.7742 11.2903 15.0411 11.2903 12.9032C11.2903 10.7653 9.55723 9.03226 7.41935 9.03226ZM7.41935 10.3226C8.84461 10.3226 10 11.478 10 12.9032C10 14.3285 8.84461 15.4839 7.41935 15.4839C5.9941 15.4839 4.83871 14.3285 4.83871 12.9032C4.83871 11.478 5.9941 10.3226 7.41935 10.3226Z" fill="white"/>
<path d="M20 12.9032C20 12.5469 19.7111 12.2581 19.3548 12.2581H13.2258C12.8695 12.2581 12.5806 12.5469 12.5806 12.9032C12.5806 13.2595 12.8695 13.5484 13.2258 13.5484H19.3548C19.7111 13.5484 20 13.2595 20 12.9032Z" fill="white"/>
</svg>
