<svg width="50" height="39" viewBox="0 0 50 39" fill="none" xmlns="http://www.w3.org/2000/svg">
<path d="M24.3371 10.0869L8.33399 23.2673V37.4928C8.33399 37.8611 8.48031 38.2143 8.74076 38.4748C9.0012 38.7352 9.35445 38.8816 9.72277 38.8816L19.4495 38.8564C19.8166 38.8545 20.168 38.7074 20.427 38.4472C20.6859 38.1869 20.8313 37.8347 20.8313 37.4676V29.1601C20.8313 28.7918 20.9776 28.4385 21.2381 28.1781C21.4985 27.9176 21.8517 27.7713 22.2201 27.7713H27.7752C28.1435 27.7713 28.4968 27.9176 28.7572 28.1781C29.0177 28.4385 29.164 28.7918 29.164 29.1601V37.4615C29.1634 37.6443 29.1989 37.8253 29.2684 37.9943C29.338 38.1633 29.4402 38.3169 29.5692 38.4464C29.6982 38.5758 29.8515 38.6785 30.0203 38.7485C30.1891 38.8186 30.37 38.8547 30.5528 38.8547L40.276 38.8816C40.6443 38.8816 40.9975 38.7352 41.258 38.4748C41.5184 38.2143 41.6648 37.8611 41.6648 37.4928V23.2578L25.6651 10.0869C25.477 9.93528 25.2427 9.8526 25.0011 9.8526C24.7595 9.8526 24.5252 9.93528 24.3371 10.0869ZM49.6155 19.0454L42.3591 13.0641V1.04159C42.3591 0.765341 42.2494 0.500409 42.0541 0.305074C41.8587 0.109738 41.5938 0 41.3176 0H36.4568C36.1806 0 35.9156 0.109738 35.7203 0.305074C35.525 0.500409 35.4152 0.765341 35.4152 1.04159V7.34405L27.6441 0.950448C26.8984 0.336762 25.9626 0.00122677 24.9968 0.00122677C24.031 0.00122677 23.0952 0.336762 22.3494 0.950448L0.378008 19.0454C0.272536 19.1326 0.185276 19.2397 0.121211 19.3606C0.0571465 19.4815 0.017534 19.6139 0.00463693 19.7501C-0.00826017 19.8863 0.00581089 20.0237 0.0460461 20.1545C0.0862813 20.2853 0.151892 20.4069 0.23913 20.5123L2.4525 23.2031C2.5395 23.3089 2.64651 23.3965 2.76741 23.4608C2.8883 23.5252 3.0207 23.5651 3.15704 23.5783C3.29337 23.5914 3.43096 23.5775 3.56193 23.5374C3.69289 23.4973 3.81466 23.4318 3.92027 23.3446L24.3371 6.52814C24.5252 6.37653 24.7595 6.29385 25.0011 6.29385C25.2427 6.29385 25.477 6.37653 25.6651 6.52814L46.0828 23.3446C46.1882 23.4318 46.3098 23.4974 46.4406 23.5376C46.5714 23.5779 46.7088 23.5919 46.845 23.5791C46.9813 23.5662 47.1136 23.5265 47.2345 23.4625C47.3554 23.3984 47.4625 23.3112 47.5497 23.2057L49.7631 20.5149C49.8502 20.4089 49.9156 20.2867 49.9553 20.1553C49.9951 20.024 50.0085 19.886 49.9948 19.7495C49.9811 19.6129 49.9405 19.4804 49.8754 19.3596C49.8103 19.2388 49.722 19.132 49.6155 19.0454Z" fill="#2B2A2A"/>
</svg>
