<svg width="50" height="50" viewBox="0 0 50 50" fill="none" xmlns="http://www.w3.org/2000/svg">
<path d="M25 0C11.1939 0 0 11.1979 0 25C0 38.8102 11.1939 50 25 50C38.8061 50 50 38.8102 50 25C50 11.1979 38.8061 0 25 0ZM25 11.0887C27.3383 11.0887 29.2339 12.9843 29.2339 15.3226C29.2339 17.6609 27.3383 19.5565 25 19.5565C22.6617 19.5565 20.7661 17.6609 20.7661 15.3226C20.7661 12.9843 22.6617 11.0887 25 11.0887ZM30.6452 36.6935C30.6452 37.3616 30.1035 37.9032 29.4355 37.9032H20.5645C19.8965 37.9032 19.3548 37.3616 19.3548 36.6935V34.2742C19.3548 33.6061 19.8965 33.0645 20.5645 33.0645H21.7742V26.6129H20.5645C19.8965 26.6129 19.3548 26.0713 19.3548 25.4032V22.9839C19.3548 22.3158 19.8965 21.7742 20.5645 21.7742H27.0161C27.6842 21.7742 28.2258 22.3158 28.2258 22.9839V33.0645H29.4355C30.1035 33.0645 30.6452 33.6061 30.6452 34.2742V36.6935Z" fill="#2B2A2A"/>
</svg>
